<svg xmlns="http://www.w3.org/2000/svg" viewBox="0 0 100 100">
  <defs>
    <linearGradient id="roadGradient" x1="0%" y1="0%" x2="100%" y2="100%">
      <stop offset="0%" style="stop-color:#667eea;stop-opacity:1" />
      <stop offset="100%" style="stop-color:#764ba2;stop-opacity:1" />
    </linearGradient>
    <linearGradient id="roadLineGradient" x1="0%" y1="0%" x2="100%" y2="100%">
      <stop offset="0%" style="stop-color:#ffffff;stop-opacity:0.9" />
      <stop offset="100%" style="stop-color:#f1f5f9;stop-opacity:0.8" />
    </linearGradient>
  </defs>
  
  <!-- Background Circle -->
  <circle cx="50" cy="50" r="48" fill="url(#roadGradient)" stroke="#ffffff" stroke-width="2"/>
  
  <!-- Road Base -->
  <path d="M15 30 Q50 25 85 30 L85 70 Q50 75 15 70 Z" fill="#4a5568" opacity="0.8"/>
  
  <!-- Road Surface -->
  <path d="M18 33 Q50 28 82 33 L82 67 Q50 72 18 67 Z" fill="#2d3748"/>
  
  <!-- Road Lines -->
  <rect x="23" y="47" width="8" height="3" fill="url(#roadLineGradient)" rx="1"/>
  <rect x="35" y="48" width="8" height="3" fill="url(#roadLineGradient)" rx="1"/>
  <rect x="47" y="49" width="8" height="3" fill="url(#roadLineGradient)" rx="1"/>
  <rect x="59" y="48" width="8" height="3" fill="url(#roadLineGradient)" rx="1"/>
  <rect x="71" y="47" width="8" height="3" fill="url(#roadLineGradient)" rx="1"/>
  
  <!-- Warning/Report Icon -->
  <circle cx="50" cy="45" r="8" fill="#fbbf24" stroke="#f59e0b" stroke-width="1"/>
  <path d="M50 40 L50 48 M50 51 L50 52" stroke="#ffffff" stroke-width="2" stroke-linecap="round"/>
  
  <!-- Mobile/Report indicator -->
  <rect x="65" y="20" width="12" height="18" fill="#3b82f6" rx="2"/>
  <rect x="67" y="22" width="8" height="12" fill="#ffffff" rx="1"/>
  <circle cx="71" cy="36" r="1" fill="#ffffff"/>
</svg>
